<svg width="58" height="55" viewBox="0 0 58 55" fill="none" xmlns="http://www.w3.org/2000/svg">
<path d="M28.8529 0L29.8981 22.7971L34.2204 15.0934L31.8293 23.597L44.4816 13.2243L33.3074 25.0751L41.811 22.6841L34.1074 27.0063L57.3051 28.0515L34.1074 29.0966L41.811 33.4189L33.3074 31.0279L44.4816 44.0809L31.8293 32.5059L34.2204 41.0096L29.8981 33.3059L28.8529 54.5L27.8078 33.3059L23.4855 41.0096L25.8766 32.5059L14.8272 44.0809L24.3985 31.0279L15.8949 33.4189L23.5985 29.0966L0 28.0515L23.5985 27.0063L15.8949 22.6841L24.3985 25.0751L14.8272 13.2243L25.8766 23.597L23.4855 15.0934L27.8078 22.7971L28.8529 0Z" fill="#FF9393"/>
</svg>
